<?xml version="1.0" encoding="UTF-8" standalone="no"?>
<!DOCTYPE svg PUBLIC "-//W3C//DTD SVG 1.1//EN" "http://www.w3.org/Graphics/SVG/1.1/DTD/svg11.dtd">
<svg xmlns="http://www.w3.org/2000/svg" version="1.1" xmlns:xlink="http://www.w3.org/1999/xlink" viewBox="0 0 512 288">

<!-- Copyright 2015-2022 Isaac Gouy -->

<!-- Box plot chart showing benchmark program performance grouped by implementation language -->

<!-- The Computer Language Benchmarks Game -->
<!-- https://benchmarksgame-team.pages.debian.net/benchmarksgame/license.html -->

<g style="stroke: #ccc;" >
<line x1="51" y1="264" x2="461" y2="264" />
<line x1="51" y1="221.57" x2="461" y2="221.57" />
<line x1="51" y1="201.85" x2="461" y2="201.85" />
<line x1="51" y1="175.08" x2="461" y2="175.08" />
<line x1="51" y1="132.65" x2="461" y2="132.65" />
<line x1="51" y1="112.92" x2="461" y2="112.92" />
<line x1="51" y1="86.15" x2="461" y2="86.15" />
<line x1="51" y1="43.73" x2="461" y2="43.73" />
<line x1="51" y1="24" x2="461" y2="24" />
</g>
<g style="text-anchor: end; font-family: Ubuntu,Verdana,sans-serif; font-size: 0.9em;" >
<text x="51" y="262" >1</text>
<text x="51" y="219.57" >3</text>
<text x="51" y="199.85" >5</text>
<text x="51" y="173.08" >10</text>
<text x="51" y="130.65" >30</text>
<text x="51" y="110.92" >50</text>
<text x="51" y="84.15" >100</text>
<text x="51" y="41.73" >300</text>
<text x="51" y="22" ></text>
</g>
<defs>
<linearGradient id="grade" x1="0" y1="0" x2="0" y2="1">
<stop offset="0" style="stop-color: white" stop-opacity="0.6"/>
<stop offset="1" style="stop-color: white" stop-opacity="0.8"/>
</linearGradient>
<mask id="fade">
<rect x="58" y="24" width="452" height="288" fill="url(#grade)"  />
</mask>
<g id="backgroundText" style="text-anchor: end; font-family: Ubuntu,Verdana,sans-serif; font-size: 1em;">
<text x="16" y="0" transform="rotate(270,16,0)" xml:space="preserve">   C gcc   C gcc   C gcc   C gcc   C gcc</text>
<text x="43" y="0" transform="rotate(270,43,0)" xml:space="preserve">   Rust   Rust   Rust   Rust   Rust   Rust</text>
<text x="70" y="0" transform="rotate(270,70,0)" xml:space="preserve">   C++ g++   C++ g++   C++ g++   C++ g++</text>
<text x="97" y="0" transform="rotate(270,97,0)" xml:space="preserve">   C# .NET   C# .NET   C# .NET   C# .NET</text>
<text x="124" y="0" transform="rotate(270,124,0)" xml:space="preserve">   Chapel   Chapel   Chapel   Chapel   Chapel</text>
<text x="151" y="0" transform="rotate(270,151,0)" xml:space="preserve">   Classic Fortran   Classic Fortran</text>
<text x="178" y="0" transform="rotate(270,178,0)" xml:space="preserve">   Julia   Julia   Julia   Julia   Julia</text>
<text x="205" y="0" transform="rotate(270,205,0)" xml:space="preserve">   F# .NET   F# .NET   F# .NET   F# .NET</text>
<text x="232" y="0" transform="rotate(270,232,0)" xml:space="preserve">   Ada 2012 GNAT   Ada 2012 GNAT   Ada 2012 GNAT</text>
<text x="259" y="0" transform="rotate(270,259,0)" xml:space="preserve">   Java   Java   Java   Java   Java   Java</text>
<text x="286" y="0" transform="rotate(270,286,0)" xml:space="preserve">   Swift   Swift   Swift   Swift   Swift</text>
<text x="313" y="0" transform="rotate(270,313,0)" xml:space="preserve">   Go   Go   Go   Go   Go   Go   Go   Go   Go   Go</text>
<text x="340" y="0" transform="rotate(270,340,0)" xml:space="preserve">   Haskell GHC   Haskell GHC   Haskell GHC</text>
<text x="367" y="0" transform="rotate(270,367,0)" xml:space="preserve">   Free Pascal   Free Pascal   Free Pascal</text>
<text x="394" y="0" transform="rotate(270,394,0)" xml:space="preserve">   Lisp SBCL   Lisp SBCL   Lisp SBCL</text>
</g>
</defs>
<use x="60" y="27" xlink:href="#backgroundText"/>
<rect x="58" y="24" width="452" height="288" fill="white" mask="url(#fade)" />
<rect x="58" y="264" width="452" height="288" style="fill: white; stroke: white;" />
<g style="fill: black; stroke: black;">
<rect x="72" y="238.65" width="1" height="25.35" />
<rect x="99" y="240.2" width="1" height="23.8" />
<rect x="126" y="242.56" width="1" height="21.44" />
<rect x="153" y="207.94" width="1" height="54.88" />
<rect x="180" y="185" width="1" height="77.56" />
<rect x="207" y="177.67" width="1" height="79.26" />
<rect x="234" y="189.86" width="1" height="60.8" />
<rect x="261" y="173.13" width="1" height="78.82" />
<rect x="288" y="192.9" width="1" height="62.81" />
<rect x="315" y="184.94" width="1" height="68.72" />
<rect x="342" y="160.73" width="1" height="94.85" />
<rect x="369" y="194.65" width="1" height="58.07" />
<rect x="396" y="162.31" width="1" height="89.26" />
<rect x="423" y="162.58" width="1" height="93.53" />
<rect x="450" y="179.46" width="1" height="36.21" />
</g>
<g style="fill: white; stroke: black;">
<rect x="62" y="249.75" width="22" height="14.25" />
<rect x="89" y="250.21" width="22" height="13.79" />
<rect x="116" y="248.19" width="22" height="15.81" />
<rect x="143" y="228.85" width="22" height="25.18" />
<rect x="170" y="211.58" width="22" height="41.66" />
<rect x="197" y="204.25" width="22" height="41.66" />
<rect x="224" y="213.77" width="22" height="32.72" />
<rect x="251" y="197.71" width="22" height="34.74" />
<rect x="278" y="206.61" width="22" height="18.5" />
<rect x="305" y="201.18" width="22" height="26.74" />
<rect x="332" y="186.86" width="22" height="39.95" />
<rect x="359" y="208.27" width="22" height="12.8" />
<rect x="386" y="180.26" width="22" height="48.74" />
<rect x="413" y="187.1" width="22" height="34.53" />
<rect x="440" y="196.08" width="22" height="17.14" />
</g>
<g style="fill: black; stroke: black;">
<line x1="68.5" y1="264" x2="78" y2="264" />
<line x1="68.5" y1="238.65" x2="78" y2="238.65" />
</g>
<g style="fill: black; stroke: black;">
<rect x="63" y="262.01" width="20" height="1" />
</g>
<g style="fill: black; stroke: black;">
<line x1="95.5" y1="264" x2="105" y2="264" />
<line x1="95.5" y1="240.2" x2="105" y2="240.2" />
</g>
<g style="fill: black; stroke: black;">
<rect x="90" y="260.24" width="20" height="1" />
</g>
<g style="fill: black; stroke: black;">
<line x1="122.5" y1="264" x2="132" y2="264" />
<line x1="122.5" y1="242.56" x2="132" y2="242.56" />
</g>
<g style="fill: black; stroke: black;">
<rect x="117" y="258.68" width="20" height="1" />
</g>
<g style="fill: black; stroke: black;">
<line x1="149.5" y1="262.82" x2="159" y2="262.82" />
<line x1="149.5" y1="207.94" x2="159" y2="207.94" />
<line x1="149.5" y1="203.88" x2="159" y2="203.88" />
<rect x="153" y="203.88" width="1" height="5" />
</g>
<g style="fill: black; stroke: black;">
<rect x="144" y="239.29" width="20" height="1" />
</g>
<g style="fill: black; stroke: black;">
<line x1="176.5" y1="262.56" x2="186" y2="262.56" />
<line x1="176.5" y1="185" x2="186" y2="185" />
<line x1="176.5" y1="178.33" x2="186" y2="178.33" />
<rect x="180" y="178.33" width="1" height="5" />
</g>
<g style="fill: black; stroke: black;">
<rect x="171" y="235.6" width="20" height="1" />
</g>
<g style="fill: black; stroke: black;">
<line x1="203.5" y1="256.93" x2="213" y2="256.93" />
<line x1="203.5" y1="177.67" x2="213" y2="177.67" />
<line x1="203.5" y1="-203.92" x2="213" y2="-203.92" />
<rect x="207" y="-203.92" width="1" height="5" />
</g>
<g style="fill: black; stroke: black;">
<rect x="198" y="232.61" width="20" height="1" />
</g>
<g style="fill: black; stroke: black;">
<line x1="230.5" y1="250.66" x2="240" y2="250.66" />
<line x1="230.5" y1="189.86" x2="240" y2="189.86" />
<line x1="230.5" y1="158.97" x2="240" y2="158.97" />
<rect x="234" y="158.97" width="1" height="5" />
</g>
<g style="fill: black; stroke: black;">
<rect x="225" y="226.71" width="20" height="1" />
</g>
<g style="fill: black; stroke: black;">
<line x1="257.5" y1="251.95" x2="267" y2="251.95" />
<line x1="257.5" y1="173.13" x2="267" y2="173.13" />
<line x1="257.5" y1="91.06" x2="267" y2="91.06" />
<rect x="261" y="91.06" width="1" height="5" />
</g>
<g style="fill: black; stroke: black;">
<rect x="252" y="218.86" width="20" height="1" />
</g>
<g style="fill: black; stroke: black;">
<line x1="284.5" y1="255.71" x2="294" y2="255.71" />
<line x1="284.5" y1="192.9" x2="294" y2="192.9" />
</g>
<g style="fill: black; stroke: black;">
<rect x="279" y="214.03" width="20" height="1" />
</g>
<g style="fill: black; stroke: black;">
<line x1="311.5" y1="253.66" x2="321" y2="253.66" />
<line x1="311.5" y1="184.94" x2="321" y2="184.94" />
</g>
<g style="fill: black; stroke: black;">
<rect x="306" y="213.1" width="20" height="1" />
</g>
<g style="fill: black; stroke: black;">
<line x1="338.5" y1="255.58" x2="348" y2="255.58" />
<line x1="338.5" y1="160.73" x2="348" y2="160.73" />
<line x1="338.5" y1="137.77" x2="348" y2="137.77" />
<rect x="342" y="137.77" width="1" height="5" />
</g>
<g style="fill: black; stroke: black;">
<rect x="333" y="212.17" width="20" height="1" />
</g>
<g style="fill: black; stroke: black;">
<line x1="365.5" y1="252.71" x2="375" y2="252.71" />
<line x1="365.5" y1="194.65" x2="375" y2="194.65" />
<line x1="365.5" y1="160.27" x2="375" y2="160.27" />
<rect x="369" y="160.27" width="1" height="5" />
</g>
<g style="fill: black; stroke: black;">
<rect x="360" y="211.04" width="20" height="1" />
</g>
<g style="fill: black; stroke: black;">
<line x1="392.5" y1="251.57" x2="402" y2="251.57" />
<line x1="392.5" y1="162.31" x2="402" y2="162.31" />
</g>
<g style="fill: black; stroke: black;">
<rect x="387" y="205.64" width="20" height="1" />
</g>
<g style="fill: black; stroke: black;">
<line x1="419.5" y1="256.11" x2="429" y2="256.11" />
<line x1="419.5" y1="162.58" x2="429" y2="162.58" />
<line x1="419.5" y1="-203.92" x2="429" y2="-203.92" />
<rect x="423" y="-203.92" width="1" height="5" />
</g>
<g style="fill: black; stroke: black;">
<rect x="414" y="203.67" width="20" height="1" />
</g>
<g style="fill: black; stroke: black;">
<line x1="446.5" y1="215.67" x2="456" y2="215.67" />
<line x1="446.5" y1="179.46" x2="456" y2="179.46" />
<line x1="446.5" y1="152.11" x2="456" y2="152.11" />
<rect x="450" y="152.11" width="1" height="5" />
</g>
<g style="fill: black; stroke: black;">
<rect x="441" y="203.02" width="20" height="1" />
</g>
<g style="text-anchor: end; font-family: Ubuntu,Verdana,sans-serif; font-size: 0.9em;" >
<text x="462" y="282" >05 Apr 2024 u64q</text>
<text x="58" y="282" style="text-anchor: start;" >benchmarks game</text>
</g>
<text x="16" y="144" transform="rotate(270,16,144)" style="text-anchor: middle; font-family: Ubuntu,Verdana,sans-serif; font-size: 0.9em;" >program elapsed seconds / fastest</text>
<rect x="58" y="0" width="452" height="23" style="fill: white; stroke: white;" />
<text x="259.5" y="18" style="text-anchor: middle; font-family: Ubuntu,Verdana,sans-serif; font-size: 1.2em;" >How many times slower? (Percentiles)</text>
<g style="stroke: #333;">
<line x1="58" y1="24" x2="58" y2="264" />
<line x1="461" y1="24" x2="461" y2="264" />
<line x1="58" y1="264" x2="461" y2="264" />
</g>
</svg>

